<svg width="2313" height="953" viewBox="0 0 2313 953" fill="none" xmlns="http://www.w3.org/2000/svg">
<rect width="2313" height="953" fill="white"/>
<rect x="69" y="73" width="2170" height="808" rx="13" stroke="#B5BBCA" stroke-width="8"/>
<rect x="949" y="187" width="425" height="124.513" rx="17" fill="#9199AB"/>
<path d="M1075.58 235.23C1076.79 235.23 1077.51 235.395 1077.89 235.505V229.345C1077.29 229.07 1075.8 228.795 1074.26 228.795C1068.27 228.795 1064.42 232.755 1064.42 238.86V241.94H1059.91V248.21H1064.42V269H1071.79V248.21H1077.89V241.94H1071.79V238.97C1071.79 235.945 1073.93 235.23 1075.58 235.23ZM1096.69 241.83C1096.14 241.775 1095.59 241.72 1094.99 241.72C1092.68 241.72 1088.94 242.38 1087.29 245.955V241.94H1080.19V269H1087.51V256.625C1087.51 250.795 1090.75 248.98 1094.49 248.98C1095.15 248.98 1095.87 249.035 1096.69 249.2V241.83ZM1111.28 263.17C1107.7 263.17 1104.4 260.53 1104.4 255.47C1104.4 250.355 1107.7 247.77 1111.28 247.77C1114.85 247.77 1118.15 250.355 1118.15 255.47C1118.15 260.585 1114.85 263.17 1111.28 263.17ZM1111.28 241.115C1103.19 241.115 1097.09 247.11 1097.09 255.47C1097.09 263.775 1103.19 269.825 1111.28 269.825C1119.36 269.825 1125.47 263.775 1125.47 255.47C1125.47 247.11 1119.36 241.115 1111.28 241.115ZM1136.11 253.435C1136.11 250.3 1137.98 247.825 1141.17 247.825C1144.69 247.825 1146.17 250.19 1146.17 253.215V269H1153.49V251.95C1153.49 246.01 1150.41 241.225 1143.7 241.225C1140.78 241.225 1137.54 242.49 1135.89 245.295V241.94H1128.79V269H1136.11V253.435ZM1167.48 233.855H1160.88V237.65C1160.88 240.07 1159.56 241.94 1156.7 241.94H1155.32V248.43H1160.22V261.025C1160.22 266.25 1163.52 269.385 1168.8 269.385C1170.94 269.385 1172.26 269 1172.92 268.725V262.675C1172.54 262.785 1171.55 262.895 1170.67 262.895C1168.58 262.895 1167.48 262.125 1167.48 259.76V248.43H1172.92V241.94H1167.48V233.855ZM1181.75 252.39C1181.92 249.915 1184.01 247.055 1187.8 247.055C1191.98 247.055 1193.74 249.695 1193.85 252.39H1181.75ZM1194.57 259.43C1193.69 261.85 1191.82 263.555 1188.41 263.555C1184.78 263.555 1181.75 260.97 1181.59 257.395H1200.95C1200.95 257.285 1201.06 256.185 1201.06 255.14C1201.06 246.45 1196.05 241.115 1187.69 241.115C1180.76 241.115 1174.38 246.725 1174.38 255.36C1174.38 264.49 1180.93 269.825 1188.35 269.825C1195.01 269.825 1199.3 265.92 1200.67 261.245L1194.57 259.43ZM1211.69 253.435C1211.69 250.3 1213.56 247.825 1216.75 247.825C1220.27 247.825 1221.75 250.19 1221.75 253.215V269H1229.07V251.95C1229.07 246.01 1225.99 241.225 1219.28 241.225C1216.36 241.225 1213.12 242.49 1211.47 245.295V241.94H1204.37V269H1211.69V253.435ZM1259.83 229.18H1252.63V244.635C1251.86 243.205 1249.66 241.28 1244.98 241.28C1237.34 241.28 1232 247.495 1232 255.415C1232 263.61 1237.5 269.66 1245.2 269.66C1248.83 269.66 1251.58 268.01 1252.79 265.865C1252.79 267.13 1252.96 268.45 1253.07 269H1260.05C1259.94 267.9 1259.83 265.92 1259.83 264.105V229.18ZM1239.37 255.415C1239.37 250.575 1242.34 247.825 1246.08 247.825C1249.82 247.825 1252.74 250.52 1252.74 255.36C1252.74 260.255 1249.82 263.115 1246.08 263.115C1242.23 263.115 1239.37 260.255 1239.37 255.415Z" fill="white"/>
<rect x="704" y="401" width="919" height="124.513" rx="17" fill="#9199AB"/>
<path d="M1127.85 476.63C1127.85 480.865 1131.37 484.77 1137.14 484.77C1141.16 484.77 1143.74 482.9 1145.12 480.755C1145.12 481.8 1145.23 483.285 1145.39 484H1152.1C1151.94 483.065 1151.77 481.14 1151.77 479.71V466.4C1151.77 460.955 1148.58 456.115 1140 456.115C1132.74 456.115 1128.84 460.79 1128.4 465.025L1134.89 466.4C1135.11 464.035 1136.87 462 1140.06 462C1143.14 462 1144.62 463.595 1144.62 465.52C1144.62 466.455 1144.13 467.225 1142.59 467.445L1135.93 468.435C1131.42 469.095 1127.85 471.79 1127.85 476.63ZM1138.68 479.325C1136.32 479.325 1135.16 477.785 1135.16 476.19C1135.16 474.1 1136.65 473.055 1138.52 472.78L1144.62 471.845V473.055C1144.62 477.84 1141.76 479.325 1138.68 479.325ZM1164.01 494.45V481.36C1165.33 483.175 1168.08 484.66 1171.82 484.66C1179.47 484.66 1184.58 478.61 1184.58 470.415C1184.58 462.385 1180.02 456.335 1172.1 456.335C1168.03 456.335 1165 458.15 1163.79 460.24V456.94H1156.7V494.45H1164.01ZM1177.38 470.47C1177.38 475.31 1174.41 478.115 1170.67 478.115C1166.93 478.115 1163.9 475.255 1163.9 470.47C1163.9 465.685 1166.93 462.88 1170.67 462.88C1174.41 462.88 1177.38 465.685 1177.38 470.47ZM1195.24 484V456.94H1187.92V484H1195.24ZM1187.04 448.085C1187.04 450.505 1189.08 452.54 1191.55 452.54C1194.08 452.54 1196.06 450.505 1196.06 448.085C1196.06 445.555 1194.08 443.52 1191.55 443.52C1189.08 443.52 1187.04 445.555 1187.04 448.085Z" fill="white"/>
<rect x="697" y="618" width="425" height="124.513" rx="17" fill="#9199AB"/>
<path d="M844.283 673.94L838.398 691.32L833.393 673.94H825.693L834.328 701H841.753L847.968 682.52L854.293 701H861.608L870.078 673.94H862.818L857.813 691.375L851.983 673.94H844.283ZM883.653 695.17C880.078 695.17 876.778 692.53 876.778 687.47C876.778 682.355 880.078 679.77 883.653 679.77C887.228 679.77 890.528 682.355 890.528 687.47C890.528 692.585 887.228 695.17 883.653 695.17ZM883.653 673.115C875.568 673.115 869.463 679.11 869.463 687.47C869.463 695.775 875.568 701.825 883.653 701.825C891.738 701.825 897.843 695.775 897.843 687.47C897.843 679.11 891.738 673.115 883.653 673.115ZM917.667 673.83C917.117 673.775 916.567 673.72 915.962 673.72C913.652 673.72 909.912 674.38 908.262 677.955V673.94H901.167V701H908.482V688.625C908.482 682.795 911.727 680.98 915.467 680.98C916.127 680.98 916.842 681.035 917.667 681.2V673.83ZM946.598 673.94H937.028L927.678 684.005V661.18H920.363V701H927.678V693.85L930.703 690.66L937.853 701H946.818L935.763 685.325L946.598 673.94ZM952.735 684.39C952.9 681.915 954.99 679.055 958.785 679.055C962.965 679.055 964.725 681.695 964.835 684.39H952.735ZM965.55 691.43C964.67 693.85 962.8 695.555 959.39 695.555C955.76 695.555 952.735 692.97 952.57 689.395H971.93C971.93 689.285 972.04 688.185 972.04 687.14C972.04 678.45 967.035 673.115 958.675 673.115C951.745 673.115 945.365 678.725 945.365 687.36C945.365 696.49 951.91 701.825 959.335 701.825C965.99 701.825 970.28 697.92 971.655 693.245L965.55 691.43ZM991.851 673.83C991.301 673.775 990.751 673.72 990.146 673.72C987.836 673.72 984.096 674.38 982.446 677.955V673.94H975.351V701H982.666V688.625C982.666 682.795 985.911 680.98 989.651 680.98C990.311 680.98 991.026 681.035 991.851 681.2V673.83Z" fill="white"/>
<rect x="187" y="622" width="419" height="118.513" rx="14" stroke="#9199AB" stroke-width="6"/>
<path fill-rule="evenodd" clip-rule="evenodd" d="M281 665.19C281 672.288 295.753 679.61 313.952 679.61C332.151 679.61 346.904 672.288 346.904 665.19C346.904 658.092 332.151 650 313.952 650C295.753 650 281 658.092 281 665.19ZM313.952 683.033C295.753 683.033 281 675.008 281 671.67V697.826C281 704.596 295.753 712.603 313.952 712.603C332.151 712.603 346.904 704.596 346.904 697.826V671.67C346.904 675.919 332.151 683.033 313.952 683.033Z" fill="#9199AB"/>
<path d="M391.215 701H400.73L385.165 679L400.62 662.005H390.665L375.045 679.66V662.005H367.455V701H375.045V690.165L379.885 684.83L391.215 701ZM400.027 693.63C400.027 697.865 403.547 701.77 409.322 701.77C413.337 701.77 415.922 699.9 417.297 697.755C417.297 698.8 417.407 700.285 417.572 701H424.282C424.117 700.065 423.952 698.14 423.952 696.71V683.4C423.952 677.955 420.762 673.115 412.182 673.115C404.922 673.115 401.017 677.79 400.577 682.025L407.067 683.4C407.287 681.035 409.047 679 412.237 679C415.317 679 416.802 680.595 416.802 682.52C416.802 683.455 416.307 684.225 414.767 684.445L408.112 685.435C403.602 686.095 400.027 688.79 400.027 693.63ZM410.862 696.325C408.497 696.325 407.342 694.785 407.342 693.19C407.342 691.1 408.827 690.055 410.697 689.78L416.802 688.845V690.055C416.802 694.84 413.942 696.325 410.862 696.325ZM441.415 667.23C442.625 667.23 443.34 667.395 443.725 667.505V661.345C443.12 661.07 441.635 660.795 440.095 660.795C434.1 660.795 430.25 664.755 430.25 670.86V673.94H425.74V680.21H430.25V701H437.62V680.21H443.725V673.94H437.62V670.97C437.62 667.945 439.765 667.23 441.415 667.23ZM472.265 673.94H462.695L453.345 684.005V661.18H446.03V701H453.345V693.85L456.37 690.66L463.52 701H472.485L461.43 685.325L472.265 673.94ZM472.008 693.63C472.008 697.865 475.528 701.77 481.303 701.77C485.318 701.77 487.903 699.9 489.278 697.755C489.278 698.8 489.388 700.285 489.553 701H496.263C496.098 700.065 495.933 698.14 495.933 696.71V683.4C495.933 677.955 492.743 673.115 484.163 673.115C476.903 673.115 472.998 677.79 472.558 682.025L479.048 683.4C479.268 681.035 481.028 679 484.218 679C487.298 679 488.783 680.595 488.783 682.52C488.783 683.455 488.288 684.225 486.748 684.445L480.093 685.435C475.583 686.095 472.008 688.79 472.008 693.63ZM482.843 696.325C480.478 696.325 479.323 694.785 479.323 693.19C479.323 691.1 480.808 690.055 482.678 689.78L488.783 688.845V690.055C488.783 694.84 485.923 696.325 482.843 696.325Z" fill="#9199AB"/>
<rect x="1703" y="621" width="419" height="118.513" rx="14" stroke="#9199AB" stroke-width="6"/>
<path fill-rule="evenodd" clip-rule="evenodd" d="M1757 664.19C1757 671.288 1771.75 678.61 1789.95 678.61C1808.15 678.61 1822.9 671.288 1822.9 664.19C1822.9 657.092 1808.15 649 1789.95 649C1771.75 649 1757 657.092 1757 664.19ZM1789.95 682.033C1771.75 682.033 1757 674.008 1757 670.67V696.826C1757 703.596 1771.75 711.603 1789.95 711.603C1808.15 711.603 1822.9 703.596 1822.9 696.826V670.67C1822.9 674.919 1808.15 682.033 1789.95 682.033Z" fill="#9199AB"/>
<path d="M1886.96 700V661.005H1876.62L1865.18 689.165L1853.47 661.005H1843.46V700H1850.72V672.885L1861.94 700H1868.26L1879.48 672.665V700H1886.96ZM1904.87 694.17C1901.3 694.17 1898 691.53 1898 686.47C1898 681.355 1901.3 678.77 1904.87 678.77C1908.45 678.77 1911.75 681.355 1911.75 686.47C1911.75 691.585 1908.45 694.17 1904.87 694.17ZM1904.87 672.115C1896.79 672.115 1890.68 678.11 1890.68 686.47C1890.68 694.775 1896.79 700.825 1904.87 700.825C1912.96 700.825 1919.06 694.775 1919.06 686.47C1919.06 678.11 1912.96 672.115 1904.87 672.115ZM1929.7 684.435C1929.7 681.3 1931.57 678.825 1934.76 678.825C1938.28 678.825 1939.76 681.19 1939.76 684.215V700H1947.08V682.95C1947.08 677.01 1944 672.225 1937.29 672.225C1934.37 672.225 1931.13 673.49 1929.48 676.295V672.94H1922.38V700H1929.7V684.435ZM1950.13 701.485C1950.9 706.655 1955.85 711.275 1963.27 711.275C1973.45 711.275 1977.46 704.51 1977.46 697.085V672.94H1970.42V676.13C1969.49 674.315 1967.01 672.445 1962.72 672.445C1955.3 672.445 1950.13 678.495 1950.13 685.645C1950.13 693.235 1955.52 698.79 1962.72 698.79C1966.63 698.79 1969.16 697.085 1970.26 695.325V697.305C1970.26 702.53 1967.67 704.84 1963.05 704.84C1959.59 704.84 1957.22 702.695 1956.73 699.725L1950.13 701.485ZM1963.99 692.52C1960.19 692.52 1957.5 689.88 1957.5 685.645C1957.5 681.465 1960.36 678.825 1963.99 678.825C1967.51 678.825 1970.37 681.465 1970.37 685.645C1970.37 689.825 1967.73 692.52 1963.99 692.52ZM1994.58 694.17C1991 694.17 1987.7 691.53 1987.7 686.47C1987.7 681.355 1991 678.77 1994.58 678.77C1998.15 678.77 2001.45 681.355 2001.45 686.47C2001.45 691.585 1998.15 694.17 1994.58 694.17ZM1994.58 672.115C1986.49 672.115 1980.39 678.11 1980.39 686.47C1980.39 694.775 1986.49 700.825 1994.58 700.825C2002.66 700.825 2008.77 694.775 2008.77 686.47C2008.77 678.11 2002.66 672.115 1994.58 672.115ZM2020.23 692.96V668.045H2026.34C2032.72 668.045 2038 672.06 2038 680.53C2038 689 2032.66 692.96 2026.28 692.96H2020.23ZM2026.56 700C2037.67 700 2045.86 692.85 2045.86 680.53C2045.86 668.21 2037.72 661.005 2026.61 661.005H2012.64V700H2026.56ZM2049.99 661.005V700H2065.06C2072.38 700 2077.11 695.435 2077.11 689.11C2077.11 684.27 2074.03 680.805 2070.23 679.87C2073.48 678.77 2075.9 675.525 2075.9 671.51C2075.9 665.46 2071.61 661.005 2064.02 661.005H2049.99ZM2057.47 677.12V667.385H2062.81C2066.49 667.385 2068.42 669.255 2068.42 672.225C2068.42 675.195 2066.33 677.12 2062.86 677.12H2057.47ZM2057.47 693.675V683.39H2063.74C2067.54 683.39 2069.52 685.535 2069.52 688.615C2069.52 691.75 2067.32 693.675 2063.63 693.675H2057.47Z" fill="#9199AB"/>
<rect x="1201" y="621" width="419" height="118.513" rx="14" stroke="#9199AB" stroke-width="6"/>
<path fill-rule="evenodd" clip-rule="evenodd" d="M1234 664.19C1234 671.288 1248.75 678.61 1266.95 678.61C1285.15 678.61 1299.9 671.288 1299.9 664.19C1299.9 657.092 1285.15 649 1266.95 649C1248.75 649 1234 657.092 1234 664.19ZM1266.95 682.033C1248.75 682.033 1234 674.008 1234 670.67V696.826C1234 703.596 1248.75 711.603 1266.95 711.603C1285.15 711.603 1299.9 703.596 1299.9 696.826V670.67C1299.9 674.919 1285.15 682.033 1266.95 682.033Z" fill="#9199AB"/>
<path d="M1328.1 678.77V667.605H1334.1C1337.89 667.605 1340.2 669.75 1340.2 673.215C1340.2 676.57 1337.89 678.77 1334.1 678.77H1328.1ZM1335.03 685.315C1342.73 685.315 1347.85 680.255 1347.85 673.16C1347.85 666.12 1342.73 661.005 1335.03 661.005H1320.46V700H1328.05V685.315H1335.03ZM1361.25 694.17C1357.67 694.17 1354.37 691.53 1354.37 686.47C1354.37 681.355 1357.67 678.77 1361.25 678.77C1364.82 678.77 1368.12 681.355 1368.12 686.47C1368.12 691.585 1364.82 694.17 1361.25 694.17ZM1361.25 672.115C1353.16 672.115 1347.06 678.11 1347.06 686.47C1347.06 694.775 1353.16 700.825 1361.25 700.825C1369.33 700.825 1375.44 694.775 1375.44 686.47C1375.44 678.11 1369.33 672.115 1361.25 672.115ZM1376.45 692.465C1376.78 695.545 1379.58 700.825 1387.72 700.825C1394.82 700.825 1398.23 696.315 1398.23 691.915C1398.23 687.955 1395.53 684.71 1390.2 683.61L1386.35 682.785C1384.86 682.51 1383.87 681.685 1383.87 680.365C1383.87 678.825 1385.41 677.67 1387.34 677.67C1390.42 677.67 1391.57 679.705 1391.79 681.3L1397.9 679.925C1397.57 677.01 1394.98 672.115 1387.28 672.115C1381.45 672.115 1377.16 676.13 1377.16 680.97C1377.16 684.765 1379.53 687.9 1384.75 689.055L1388.33 689.88C1390.42 690.32 1391.24 691.31 1391.24 692.52C1391.24 693.95 1390.09 695.215 1387.67 695.215C1384.48 695.215 1382.88 693.235 1382.72 691.09L1376.45 692.465ZM1410.68 664.855H1404.08V668.65C1404.08 671.07 1402.76 672.94 1399.9 672.94H1398.53V679.43H1403.42V692.025C1403.42 697.25 1406.72 700.385 1412 700.385C1414.15 700.385 1415.47 700 1416.13 699.725V693.675C1415.74 693.785 1414.75 693.895 1413.87 693.895C1411.78 693.895 1410.68 693.125 1410.68 690.76V679.43H1416.13V672.94H1410.68V664.855ZM1417.7 701.485C1418.47 706.655 1423.42 711.275 1430.84 711.275C1441.02 711.275 1445.03 704.51 1445.03 697.085V672.94H1437.99V676.13C1437.06 674.315 1434.58 672.445 1430.29 672.445C1422.87 672.445 1417.7 678.495 1417.7 685.645C1417.7 693.235 1423.09 698.79 1430.29 698.79C1434.2 698.79 1436.73 697.085 1437.83 695.325V697.305C1437.83 702.53 1435.24 704.84 1430.62 704.84C1427.16 704.84 1424.79 702.695 1424.3 699.725L1417.7 701.485ZM1431.56 692.52C1427.76 692.52 1425.07 689.88 1425.07 685.645C1425.07 681.465 1427.93 678.825 1431.56 678.825C1435.08 678.825 1437.94 681.465 1437.94 685.645C1437.94 689.825 1435.3 692.52 1431.56 692.52ZM1466.49 672.83C1465.94 672.775 1465.39 672.72 1464.78 672.72C1462.47 672.72 1458.73 673.38 1457.08 676.955V672.94H1449.99V700H1457.3V687.625C1457.3 681.795 1460.55 679.98 1464.29 679.98C1464.95 679.98 1465.66 680.035 1466.49 680.2V672.83ZM1474.25 683.39C1474.42 680.915 1476.51 678.055 1480.3 678.055C1484.48 678.055 1486.24 680.695 1486.35 683.39H1474.25ZM1487.07 690.43C1486.19 692.85 1484.32 694.555 1480.91 694.555C1477.28 694.555 1474.25 691.97 1474.09 688.395H1493.45C1493.45 688.285 1493.56 687.185 1493.56 686.14C1493.56 677.45 1488.55 672.115 1480.19 672.115C1473.26 672.115 1466.88 677.725 1466.88 686.36C1466.88 695.49 1473.43 700.825 1480.85 700.825C1487.51 700.825 1491.8 696.92 1493.17 692.245L1487.07 690.43ZM1523.65 670.3C1522.77 665.9 1519.14 660.18 1509.68 660.18C1502.31 660.18 1496.1 665.46 1496.1 672.39C1496.1 678.275 1500.11 682.29 1506.33 683.555L1511.77 684.655C1514.8 685.26 1516.5 687.02 1516.5 689.275C1516.5 692.025 1514.25 694.06 1510.18 694.06C1504.68 694.06 1501.98 690.595 1501.65 686.745L1494.61 688.615C1495.22 694.17 1499.78 700.825 1510.12 700.825C1519.2 700.825 1524.2 694.775 1524.2 688.78C1524.2 683.28 1520.41 678.66 1513.31 677.285L1507.87 676.24C1505.01 675.69 1503.63 673.985 1503.63 671.84C1503.63 669.255 1506.05 666.89 1509.74 666.89C1514.69 666.89 1516.45 670.245 1516.83 672.39L1523.65 670.3ZM1525.74 680.53C1525.74 693.07 1535.2 700.825 1545.76 700.825C1549.39 700.825 1552.91 699.89 1555.94 698.185L1560.72 703.465L1565.73 699.175L1561.05 694.005C1564.02 690.595 1565.84 686.03 1565.84 680.53C1565.84 667.935 1556.38 660.18 1545.76 660.18C1535.2 660.18 1525.74 667.935 1525.74 680.53ZM1533.61 680.475C1533.61 671.675 1539.77 667.495 1545.76 667.495C1551.81 667.495 1557.97 671.675 1557.97 680.475C1557.97 683.665 1557.15 686.25 1555.83 688.23L1549.72 681.41L1544.66 685.755L1550.77 692.465C1549.23 693.125 1547.47 693.455 1545.76 693.455C1539.77 693.455 1533.61 689.275 1533.61 680.475ZM1594.94 700V692.74H1577.56V661.005H1569.97V700H1594.94Z" fill="#9199AB"/>
<rect x="114" y="22" width="237" height="92" fill="white"/>
<path d="M148.905 48.336H156.087L167.913 68.802H168.345L180.171 48.336H187.407V87H180.171V67.938L180.603 61.458H180.171L170.343 78.792H165.969L156.087 61.458H155.655L156.087 67.938V87H148.905V48.336ZM206.257 59.676C208.309 59.676 210.181 60.036 211.873 60.756C213.601 61.44 215.077 62.412 216.301 63.672C217.561 64.896 218.533 66.372 219.217 68.1C219.937 69.828 220.297 71.718 220.297 73.77C220.297 75.822 219.937 77.712 219.217 79.44C218.533 81.168 217.561 82.662 216.301 83.922C215.077 85.146 213.601 86.118 211.873 86.838C210.181 87.522 208.309 87.864 206.257 87.864C204.205 87.864 202.315 87.522 200.587 86.838C198.895 86.118 197.419 85.146 196.159 83.922C194.935 82.662 193.963 81.168 193.243 79.44C192.559 77.712 192.217 75.822 192.217 73.77C192.217 71.718 192.559 69.828 193.243 68.1C193.963 66.372 194.935 64.896 196.159 63.672C197.419 62.412 198.895 61.44 200.587 60.756C202.315 60.036 204.205 59.676 206.257 59.676ZM206.257 81.33C207.157 81.33 208.021 81.168 208.849 80.844C209.713 80.484 210.469 79.98 211.117 79.332C211.765 78.684 212.269 77.892 212.629 76.956C213.025 76.02 213.223 74.958 213.223 73.77C213.223 72.582 213.025 71.52 212.629 70.584C212.269 69.648 211.765 68.856 211.117 68.208C210.469 67.56 209.713 67.074 208.849 66.75C208.021 66.39 207.157 66.21 206.257 66.21C205.321 66.21 204.439 66.39 203.611 66.75C202.783 67.074 202.045 67.56 201.397 68.208C200.749 68.856 200.227 69.648 199.831 70.584C199.471 71.52 199.291 72.582 199.291 73.77C199.291 74.958 199.471 76.02 199.831 76.956C200.227 77.892 200.749 78.684 201.397 79.332C202.045 79.98 202.783 80.484 203.611 80.844C204.439 81.168 205.321 81.33 206.257 81.33ZM220.894 60.54H228.94L235.528 77.388H235.906L242.548 60.54H250.54L239.146 87H232.18L220.894 60.54ZM257.09 56.706C256.478 56.706 255.884 56.598 255.308 56.382C254.768 56.13 254.282 55.806 253.85 55.41C253.454 54.978 253.13 54.492 252.878 53.952C252.662 53.412 252.554 52.818 252.554 52.17C252.554 51.522 252.662 50.928 252.878 50.388C253.13 49.848 253.454 49.38 253.85 48.984C254.282 48.552 254.768 48.228 255.308 48.012C255.884 47.76 256.478 47.634 257.09 47.634C258.35 47.634 259.43 48.084 260.33 48.984C261.23 49.848 261.68 50.91 261.68 52.17C261.68 53.43 261.23 54.51 260.33 55.41C259.43 56.274 258.35 56.706 257.09 56.706ZM253.58 87V60.54H260.654V87H253.58ZM291.303 80.628C290.079 82.788 288.423 84.534 286.335 85.866C284.283 87.198 281.763 87.864 278.775 87.864C276.759 87.864 274.887 87.522 273.159 86.838C271.467 86.118 269.991 85.128 268.731 83.868C267.471 82.608 266.481 81.132 265.761 79.44C265.077 77.712 264.735 75.822 264.735 73.77C264.735 71.862 265.077 70.062 265.761 68.37C266.445 66.642 267.399 65.148 268.623 63.888C269.847 62.592 271.287 61.566 272.943 60.81C274.635 60.054 276.489 59.676 278.505 59.676C280.629 59.676 282.519 60.036 284.175 60.756C285.831 61.44 287.217 62.412 288.333 63.672C289.449 64.896 290.295 66.354 290.871 68.046C291.447 69.738 291.735 71.574 291.735 73.554C291.735 73.806 291.735 74.022 291.735 74.202C291.699 74.418 291.681 74.616 291.681 74.796C291.645 74.976 291.627 75.174 291.627 75.39H271.701C271.845 76.47 272.133 77.406 272.565 78.198C273.033 78.954 273.591 79.602 274.239 80.142C274.923 80.646 275.661 81.024 276.453 81.276C277.245 81.492 278.055 81.6 278.883 81.6C280.503 81.6 281.835 81.24 282.879 80.52C283.959 79.764 284.805 78.828 285.417 77.712L291.303 80.628ZM284.877 70.368C284.841 69.9 284.679 69.378 284.391 68.802C284.139 68.226 283.743 67.686 283.203 67.182C282.699 66.678 282.051 66.264 281.259 65.94C280.503 65.616 279.585 65.454 278.505 65.454C276.993 65.454 275.661 65.886 274.509 66.75C273.357 67.614 272.547 68.82 272.079 70.368H284.877ZM306.38 87.864C304.652 87.864 303.104 87.648 301.736 87.216C300.404 86.784 299.234 86.226 298.226 85.542C297.254 84.822 296.426 84.012 295.742 83.112C295.058 82.176 294.536 81.24 294.176 80.304L300.494 77.604C301.106 78.972 301.916 79.998 302.924 80.682C303.968 81.33 305.12 81.654 306.38 81.654C307.676 81.654 308.702 81.42 309.458 80.952C310.214 80.484 310.592 79.926 310.592 79.278C310.592 78.558 310.268 77.982 309.62 77.55C309.008 77.082 307.928 76.668 306.38 76.308L302.654 75.498C301.826 75.318 300.962 75.03 300.062 74.634C299.198 74.238 298.406 73.734 297.686 73.122C296.966 72.51 296.372 71.772 295.904 70.908C295.436 70.044 295.202 69.036 295.202 67.884C295.202 66.588 295.472 65.436 296.012 64.428C296.588 63.42 297.362 62.574 298.334 61.89C299.306 61.17 300.44 60.63 301.736 60.27C303.068 59.874 304.49 59.676 306.002 59.676C308.522 59.676 310.772 60.18 312.752 61.188C314.732 62.16 316.19 63.726 317.126 65.886L311.024 68.37C310.52 67.326 309.782 66.57 308.81 66.102C307.838 65.634 306.866 65.4 305.894 65.4C304.886 65.4 304.004 65.616 303.248 66.048C302.492 66.444 302.114 66.966 302.114 67.614C302.114 68.226 302.42 68.712 303.032 69.072C303.68 69.432 304.544 69.756 305.624 70.044L309.674 71.016C312.374 71.664 314.372 72.708 315.668 74.148C317 75.552 317.666 77.226 317.666 79.17C317.666 80.322 317.396 81.42 316.856 82.464C316.316 83.508 315.542 84.444 314.534 85.272C313.562 86.064 312.374 86.694 310.97 87.162C309.602 87.63 308.072 87.864 306.38 87.864Z" fill="#4B5368"/>
<rect x="1700" y="402" width="425" height="124.513" rx="17" fill="#9199AB"/>
<path d="M1840.3 463.88C1843.93 463.88 1845.63 466.19 1846.29 468.445L1852.84 466.245C1851.68 461.68 1847.5 457.115 1840.13 457.115C1832.27 457.115 1826.11 463.11 1826.11 471.47C1826.11 479.775 1832.38 485.825 1840.35 485.825C1847.56 485.825 1851.79 481.205 1853 476.695L1846.57 474.55C1845.96 476.64 1844.09 479.115 1840.35 479.115C1836.61 479.115 1833.42 476.365 1833.42 471.47C1833.42 466.575 1836.56 463.88 1840.3 463.88ZM1854.17 477.63C1854.17 481.865 1857.69 485.77 1863.47 485.77C1867.48 485.77 1870.07 483.9 1871.44 481.755C1871.44 482.8 1871.55 484.285 1871.72 485H1878.43C1878.26 484.065 1878.1 482.14 1878.1 480.71V467.4C1878.1 461.955 1874.91 457.115 1866.33 457.115C1859.07 457.115 1855.16 461.79 1854.72 466.025L1861.21 467.4C1861.43 465.035 1863.19 463 1866.38 463C1869.46 463 1870.95 464.595 1870.95 466.52C1870.95 467.455 1870.45 468.225 1868.91 468.445L1862.26 469.435C1857.75 470.095 1854.17 472.79 1854.17 477.63ZM1865.01 480.325C1862.64 480.325 1861.49 478.785 1861.49 477.19C1861.49 475.1 1862.97 474.055 1864.84 473.78L1870.95 472.845V474.055C1870.95 478.84 1868.09 480.325 1865.01 480.325ZM1891.88 449.855H1885.28V453.65C1885.28 456.07 1883.96 457.94 1881.1 457.94H1879.73V464.43H1884.62V477.025C1884.62 482.25 1887.92 485.385 1893.2 485.385C1895.35 485.385 1896.67 485 1897.33 484.725V478.675C1896.94 478.785 1895.95 478.895 1895.07 478.895C1892.98 478.895 1891.88 478.125 1891.88 475.76V464.43H1897.33V457.94H1891.88V449.855ZM1899.6 477.63C1899.6 481.865 1903.12 485.77 1908.9 485.77C1912.91 485.77 1915.5 483.9 1916.87 481.755C1916.87 482.8 1916.98 484.285 1917.15 485H1923.86C1923.69 484.065 1923.53 482.14 1923.53 480.71V467.4C1923.53 461.955 1920.34 457.115 1911.76 457.115C1904.5 457.115 1900.59 461.79 1900.15 466.025L1906.64 467.4C1906.86 465.035 1908.62 463 1911.81 463C1914.89 463 1916.38 464.595 1916.38 466.52C1916.38 467.455 1915.88 468.225 1914.34 468.445L1907.69 469.435C1903.18 470.095 1899.6 472.79 1899.6 477.63ZM1910.44 480.325C1908.07 480.325 1906.92 478.785 1906.92 477.19C1906.92 475.1 1908.4 474.055 1910.27 473.78L1916.38 472.845V474.055C1916.38 478.84 1913.52 480.325 1910.44 480.325ZM1935.76 485V445.18H1928.45V485H1935.76ZM1953.3 479.17C1949.73 479.17 1946.43 476.53 1946.43 471.47C1946.43 466.355 1949.73 463.77 1953.3 463.77C1956.88 463.77 1960.18 466.355 1960.18 471.47C1960.18 476.585 1956.88 479.17 1953.3 479.17ZM1953.3 457.115C1945.22 457.115 1939.11 463.11 1939.11 471.47C1939.11 479.775 1945.22 485.825 1953.3 485.825C1961.39 485.825 1967.49 479.775 1967.49 471.47C1967.49 463.11 1961.39 457.115 1953.3 457.115ZM1968.89 486.485C1969.66 491.655 1974.61 496.275 1982.03 496.275C1992.21 496.275 1996.22 489.51 1996.22 482.085V457.94H1989.18V461.13C1988.25 459.315 1985.77 457.445 1981.48 457.445C1974.06 457.445 1968.89 463.495 1968.89 470.645C1968.89 478.235 1974.28 483.79 1981.48 483.79C1985.39 483.79 1987.92 482.085 1989.02 480.325V482.305C1989.02 487.53 1986.43 489.84 1981.81 489.84C1978.35 489.84 1975.98 487.695 1975.49 484.725L1968.89 486.485ZM1982.75 477.52C1978.95 477.52 1976.26 474.88 1976.26 470.645C1976.26 466.465 1979.12 463.825 1982.75 463.825C1986.27 463.825 1989.13 466.465 1989.13 470.645C1989.13 474.825 1986.49 477.52 1982.75 477.52Z" fill="white"/>
<rect x="184" y="402" width="425" height="124.513" rx="17" fill="#9199AB"/>
<path d="M367.855 457.83C367.305 457.775 366.755 457.72 366.15 457.72C363.84 457.72 360.1 458.38 358.45 461.955V457.94H351.355V485H358.67V472.625C358.67 466.795 361.915 464.98 365.655 464.98C366.315 464.98 367.03 465.035 367.855 465.2V457.83ZM375.617 468.39C375.782 465.915 377.872 463.055 381.667 463.055C385.847 463.055 387.607 465.695 387.717 468.39H375.617ZM388.432 475.43C387.552 477.85 385.682 479.555 382.272 479.555C378.642 479.555 375.617 476.97 375.452 473.395H394.812C394.812 473.285 394.922 472.185 394.922 471.14C394.922 462.45 389.917 457.115 381.557 457.115C374.627 457.115 368.247 462.725 368.247 471.36C368.247 480.49 374.792 485.825 382.217 485.825C388.872 485.825 393.162 481.92 394.537 477.245L388.432 475.43ZM405.547 469.435C405.547 466.3 407.417 463.825 410.607 463.825C414.127 463.825 415.612 466.19 415.612 469.215V485H422.927V467.95C422.927 462.01 419.847 457.225 413.137 457.225C410.222 457.225 406.977 458.49 405.327 461.295V457.94H398.232V485H405.547V469.435ZM436.921 449.855H430.321V453.65C430.321 456.07 429.001 457.94 426.141 457.94H424.766V464.43H429.661V477.025C429.661 482.25 432.961 485.385 438.241 485.385C440.386 485.385 441.706 485 442.366 484.725V478.675C441.981 478.785 440.991 478.895 440.111 478.895C438.021 478.895 436.921 478.125 436.921 475.76V464.43H442.366V457.94H436.921V449.855Z" fill="white"/>
<line x1="1161.37" y1="309.977" x2="390.367" y2="404.977" stroke="#9199AB" stroke-width="6"/>
<path d="M1161.37 309.978L1161.37 406" stroke="#9199AB" stroke-width="6"/>
<path d="M390.654 525.999L390.654 622.022" stroke="#9199AB" stroke-width="6"/>
<path d="M607 685.5L700.5 685.5" stroke="#9199AB" stroke-width="6"/>
<path d="M1106 683.348L1199.5 683.348" stroke="#9199AB" stroke-width="6"/>
<path d="M1415 519L1415 620.001" stroke="#9199AB" stroke-width="6"/>
<path d="M1911 519L1911 620.001" stroke="#9199AB" stroke-width="6"/>
<path d="M1617 464.5L1707 464.5" stroke="#9199AB" stroke-width="6"/>
<path d="M1160.5 310L1910.5 404" stroke="#9199AB" stroke-width="6"/>
</svg>
